<svg version="1.0" xmlns="http://www.w3.org/2000/svg"
 width="550" height="100" viewBox="0 0 800 300"
 preserveAspectRatio="xMidYMid meet">

  <!-- Grupo para el logo -->
  <g transform="translate(-300,300) scale(0.060000,-0.060000)"
  fill="#FFFFFF" stroke="none">
    <!-- Logo path -->
    <path d="M1453 5110 c-81 -17 -151 -71 -189 -146 -19 -38 -19 -85 -19 -2404 0
    -2319 0 -2366 19 -2404 27 -53 80 -104 135 -130 l46 -21 1115 0 1115 0 46 21
    c55 26 108 77 135 130 19 38 19 85 19 2404 0 2319 0 2366 -19 2404 -27 53 -80
    104 -135 130 -46 21 -48 21 -1136 23 -600 0 -1109 -3 -1132 -7z m500 -257 c-7
    -2 -19 -2 -25 0 -7 3 -2 5 12 5 14 0 19 -2 13 -5z m67 -137 c0 -2 -8 -10 -17
    -17 -16 -13 -17 -12 -4 4 13 16 21 21 21 13z m1690 -2156 l0 -1860 -1150 0
    -1150 0 0 1860 0 1860 1150 0 1150 0 0 -1860z m-1323 -2242 c-3 -8 -6 -5 -6 6
    -1 11 2 17 5 13 3 -3 4 -12 1 -19z m350 0 c-3 -8 -6 -5 -6 6 -1 11 2 17 5 13
    3 -3 4 -12 1 -19z m-164 -145 c-7 -2 -19 -2 -25 0 -7 3 -2 5 12 5 14 0 19 -2
    13 -5z"/>
  </g>

  <!-- Texto "Mute Phones" -->
  <text x="500" y="200" font-size="150" fill="#FFFFFF" text-anchor="middle">Mute Phones</text>
</svg>
